<svg width="512" height="512" viewBox="0 0 512 512" xmlns="http://www.w3.org/2000/svg">
  <defs>
    <radialGradient id="scr" cx="0.5" cy="0.5" r="0.5">
      <stop offset="0" stop-color="#26384c"/>
      <stop offset="1" stop-color="#16222f"/>
    </radialGradient>
    <linearGradient id="sweep" x1="0.5" y1="0.5" x2="1" y2="0.5" gradientUnits="objectBoundingBox">
      <stop offset="0" stop-color="#5cc7a4" stop-opacity="0.55"/>
      <stop offset="1" stop-color="#5cc7a4" stop-opacity="0"/>
    </linearGradient>
  </defs>
  <rect x="16" y="16" width="480" height="480" rx="112" fill="#1e2d3f"/>
  <rect x="16" y="16" width="480" height="480" rx="112" fill="none" stroke="#3a536f" stroke-width="3"/>
  <circle cx="256" cy="256" r="168" fill="url(#scr)" stroke="#3a536f" stroke-width="6"/>
  <circle cx="256" cy="256" r="120" fill="none" stroke="#5fb0c4" stroke-width="3" stroke-opacity="0.55"/>
  <circle cx="256" cy="256" r="72" fill="none" stroke="#5fb0c4" stroke-width="3" stroke-opacity="0.55"/>
  <circle cx="256" cy="256" r="24" fill="none" stroke="#5fb0c4" stroke-width="3" stroke-opacity="0.55"/>
  <line x1="256" y1="92" x2="256" y2="420" stroke="#5fb0c4" stroke-width="2.5" stroke-opacity="0.4"/>
  <line x1="92" y1="256" x2="420" y2="256" stroke="#5fb0c4" stroke-width="2.5" stroke-opacity="0.4"/>
  <path d="M256 256 L256 88 A168 168 0 0 1 400 196 Z" fill="url(#sweep)"/>
  <line x1="256" y1="256" x2="256" y2="88" stroke="#5cc7a4" stroke-width="4" stroke-opacity="0.9" stroke-linecap="round"/>
  <circle cx="332" cy="176" r="20" fill="#6effb0" opacity="0.25"/>
  <circle cx="332" cy="176" r="11" fill="#6effb0"/>
</svg>
